<svg width="130" height="130" viewBox="0 0 130 130" fill="none" xmlns="http://www.w3.org/2000/svg">
    <rect width="130" height="130" fill="#223810"/>
    <path d="M74.2094 60.6915C79.7153 72.0422 72.8953 79.25 64.922 79.25C57.1416 79.25 50.4594 72.3868 55.2433 61.5082C37.5158 80.2207 49.2352 95.4463 65.1211 95.7455C81.2388 95.442 93.0678 79.7757 74.2094 60.6915Z"
          fill="#89B636"/>
    <path d="M57.9066 48.2555C32.8429 77.1133 46.9515 95.5051 64.9951 95.7476C65.0371 95.747 65.0791 95.7463 65.1211 95.7455C49.2352 95.4463 37.5158 80.2207 55.2433 61.5082C56.6215 58.3742 58.9514 54.907 62.4807 51.1746C61.0403 50.2046 59.5166 49.2311 57.9066 48.2555Z"
          fill="#7FAA33"/>
    <path d="M74.2094 60.6915C93.0678 79.7757 81.2388 95.442 65.1211 95.7455C83.0898 95.4267 97.0741 77.0924 72.1775 48.3513C70.5288 49.3538 68.9712 50.354 67.5013 51.3504C70.6431 54.6953 72.8192 57.8255 74.2094 60.6915Z"
          fill="#7FAA33"/>
    <path d="M65.478 95.7497C84.5218 95.6606 102.664 74.6037 80.3135 43.7823C77.3846 45.3071 74.6764 46.8319 72.1775 48.3513C97.0741 77.0924 83.0898 95.4267 65.1211 95.7455C65.2399 95.7477 65.3588 95.7492 65.478 95.7497Z"
          fill="#6D942B"/>
    <path d="M72.3502 34.25C69.684 36.492 67.2381 38.6882 65.0004 40.8358C67.6853 43.4124 70.0706 45.9191 72.1775 48.3513C74.6764 46.8319 77.3846 45.3071 80.3135 43.7823C78.0776 40.6989 75.4363 37.5177 72.3502 34.25Z"
          fill="#507222"/>
    <path d="M57.9066 48.2555C59.5166 49.2311 61.0403 50.2046 62.4807 51.1746C63.2338 50.3782 64.0414 49.5698 64.906 48.75C65.8359 49.6302 66.7 50.4973 67.5013 51.3504C68.9712 50.354 70.5288 49.3538 72.1775 48.3513C70.0706 45.9191 67.6853 43.4124 65.0004 40.8358C62.3508 43.3786 59.9929 45.8533 57.9066 48.2555Z"
          fill="#6E952C"/>
    <path d="M57.6503 34.25C54.5986 37.4811 51.982 40.6276 49.762 43.6787C52.6534 45.1823 55.4336 46.757 57.9066 48.2555C59.9929 45.8533 62.3508 43.3786 65.0004 40.8358C62.7625 38.6882 60.3166 36.492 57.6503 34.25Z"
          fill="#507222"/>
    <path d="M49.762 43.6787C27.2476 74.622 45.5343 95.75 64.6441 95.75C64.7613 95.75 64.8783 95.7492 64.9951 95.7476C46.9515 95.5051 32.8429 77.1133 57.9066 48.2555C55.4336 46.757 52.6534 45.1823 49.762 43.6787Z"
          fill="#6D942B"/>
    <path d="M64.922 79.25C72.8953 79.25 79.7153 72.0422 74.2094 60.6915C72.8192 57.8255 70.6431 54.6953 67.5013 51.3504C66.7 50.4973 65.8359 49.6302 64.906 48.75C64.0414 49.5698 63.2338 50.3782 62.4807 51.1746C58.9514 54.907 56.6215 58.3742 55.2433 61.5082C50.4594 72.3868 57.1416 79.25 64.922 79.25Z"
          fill="white"/>
</svg>
