<svg width="130" height="130" viewBox="0 0 130 130" fill="none" xmlns="http://www.w3.org/2000/svg">
    <rect width="130" height="130" fill="white"/>
    <path d="M45.3427 32.2215C46.1238 31.4405 47.3901 31.4405 48.1712 32.2215L55.2927 39.343C56.0737 40.1241 56.0737 41.3904 55.2927 42.1715L48.1712 49.293C47.3901 50.074 46.1238 50.074 45.3427 49.293L38.2212 42.1715C37.4402 41.3904 37.4402 40.1241 38.2212 39.343L45.3427 32.2215Z"
          fill="#685BC7"/>
    <path d="M45.3427 56.4647C46.1238 55.6836 47.3901 55.6836 48.1712 56.4647L55.2927 63.5862C56.0737 64.3673 56.0737 65.6336 55.2927 66.4146L48.1712 73.5361C47.3901 74.3172 46.1238 74.3172 45.3427 73.5361L38.2212 66.4146C37.4402 65.6336 37.4402 64.3673 38.2212 63.5862L45.3427 56.4647Z"
          fill="#685BC7"/>
    <path d="M45.3427 80.7079C46.1238 79.9268 47.3901 79.9268 48.1712 80.7079L55.2927 87.8294C56.0737 88.6104 56.0737 89.8767 55.2927 90.6578L48.1712 97.7793C47.3901 98.5604 46.1238 98.5604 45.3427 97.7793L38.2212 90.6578C37.4402 89.8767 37.4402 88.6104 38.2212 87.8294L45.3427 80.7079Z"
          fill="#685BC7"/>
    <path d="M61.3754 47.0857L63.5827 49.293C64.3638 50.074 65.6301 50.074 66.4112 49.293L73.5327 42.1715C74.3137 41.3904 74.3137 40.1241 73.5327 39.343L66.4112 32.2215C65.6301 31.4405 64.3638 31.4405 63.5827 32.2215L61.3754 34.4288L66.2896 39.343C67.0707 40.1241 67.0707 41.3904 66.2896 42.1715L61.3754 47.0857Z"
          fill="#685BC7"/>
    <path d="M61.3754 71.3288L63.5827 73.5361C64.3638 74.3172 65.6301 74.3172 66.4112 73.5361L73.5327 66.4146C74.3137 65.6336 74.3137 64.3673 73.5327 63.5862L66.4112 56.4647C65.6301 55.6836 64.3638 55.6836 63.5827 56.4647L61.3754 58.672L66.2896 63.5862C67.0707 64.3673 67.0707 65.6336 66.2896 66.4146L61.3754 71.3288Z"
          fill="#685BC7"/>
    <path d="M79.6185 47.0857L81.8258 49.293C82.6068 50.074 83.8732 50.074 84.6542 49.293L91.7757 42.1715C92.5568 41.3904 92.5568 40.1241 91.7757 39.343L84.6542 32.2215C83.8732 31.4405 82.6068 31.4405 81.8258 32.2215L79.6185 34.4288L84.5327 39.343C85.3137 40.1241 85.3137 41.3904 84.5327 42.1715L79.6185 47.0857Z"
          fill="#685BC7"/>
</svg>
