<svg width="130" height="130" viewBox="0 0 130 130" fill="none" xmlns="http://www.w3.org/2000/svg">
    <rect width="130" height="130" fill="#0E3A3B"/>
    <path fill-rule="evenodd" clip-rule="evenodd"
          d="M48.0319 81.0814V92.3281C48.0319 94.3628 48.8392 96.3135 50.2789 97.7532C51.7162 99.1928 53.6669 100 55.7016 100C57.7362 100 59.6869 99.1928 61.1243 97.7532C62.5616 96.3135 63.3713 94.3628 63.3713 92.3281V83.3774C63.3713 82.6704 62.7973 82.0987 62.0926 82.0987C61.3879 82.0987 60.8139 82.6727 60.8139 83.3774V92.3281C60.8139 93.6838 60.2749 94.9858 59.3159 95.9448C58.3569 96.9038 57.0572 97.4428 55.7016 97.4428C54.3459 97.4428 53.0462 96.9038 52.0872 95.9448C51.1282 94.9858 50.5892 93.6861 50.5892 92.3281V81.0814C50.5892 80.3744 50.0152 79.8027 49.3105 79.8027C48.6059 79.8027 48.0319 80.3767 48.0319 81.0814Z"
          fill="url(#paint0_linear_192_738)"/>
    <path fill-rule="evenodd" clip-rule="evenodd"
          d="M72.5624 49.0798C62.5687 49.0798 53.9726 55.0578 50.1506 63.6329C48.9583 61.8198 48.2676 59.6522 48.2676 57.3212V56.8662C48.2676 50.5078 53.4196 45.3558 59.7757 45.3558H76.6271C80.8644 45.3558 84.2991 41.9187 84.2991 37.6814V37.665C84.2991 35.6327 83.4918 33.682 82.0545 32.2447C80.6171 30.8073 78.6688 30 76.6364 30H59.7687C44.9402 30 32.9165 42.0261 32.9165 56.8592V57.3258C32.9165 72.1589 44.9379 84.185 59.7687 84.185H79.5368C89.2272 84.185 97.0835 76.3263 97.0835 66.6335C97.0835 56.9408 89.2272 49.0821 79.5368 49.0821H72.5624V49.0798ZM61.71 68.8339C62.277 67.4899 63.1007 66.2555 64.1507 65.2055C66.2857 63.0705 69.1814 61.8712 72.2007 61.8712H79.5368C80.7991 61.8712 82.0101 62.3729 82.9015 63.2665C83.7951 64.1602 84.2968 65.3712 84.2968 66.6335C84.2968 67.8959 83.7951 69.1069 82.9015 70.0006C82.0078 70.8942 80.7991 71.3959 79.5368 71.3959H59.771C52.0033 71.3959 45.7056 65.0959 45.7056 57.3282V56.8732C45.7056 49.1031 52.0033 42.8054 59.771 42.8054H76.6224C79.4481 42.8054 81.7371 40.5141 81.7371 37.6884V37.672C81.7371 36.3164 81.1981 35.019 80.2414 34.06C79.2848 33.101 77.9851 32.5643 76.6318 32.5643H59.7687C46.3519 32.5573 35.4739 43.4377 35.4739 56.8592V57.3258C35.4739 70.7472 46.3519 81.6276 59.7687 81.6276H79.5368C87.8155 81.6276 94.5262 74.9146 94.5262 66.6335C94.5262 58.3525 87.8155 51.6395 79.5368 51.6395H72.5601C63.1683 51.6395 55.1556 57.5335 52.0103 65.8215C54.0566 67.6929 56.782 68.8339 59.771 68.8339H61.7077H61.71ZM64.5614 68.8339H79.5368C80.1201 68.8339 80.6801 68.6029 81.0931 68.1876C81.5061 67.7722 81.7371 67.2145 81.7371 66.6289C81.7371 66.0455 81.5038 65.4832 81.0931 65.0702C80.6801 64.6572 80.1201 64.4239 79.5368 64.4239H72.2007C69.8604 64.4239 67.6157 65.3549 65.959 67.0092C65.4107 67.5575 64.9417 68.1689 64.5614 68.8292V68.8339Z"
          fill="url(#paint1_linear_192_738)"/>
    <g opacity="0.5">
        <path fill-rule="evenodd" clip-rule="evenodd"
              d="M48.1392 93.5484H50.7432C50.6405 93.154 50.5892 92.7434 50.5892 92.328V82.5723C49.7142 82.2526 48.8625 81.891 48.0319 81.4873V92.3304C48.0319 92.741 48.0645 93.1494 48.1392 93.5507V93.5484Z"
              fill="url(#paint2_linear_192_738)"/>
        <path fill-rule="evenodd" clip-rule="evenodd"
              d="M60.6622 93.5487H63.2662C63.3386 93.1497 63.3736 92.7413 63.3736 92.3283V84.1826H60.8162V92.3283C60.8162 92.7437 60.7649 93.1543 60.6622 93.5487Z"
              fill="url(#paint3_linear_192_738)"/>
        <path fill-rule="evenodd" clip-rule="evenodd"
              d="M67.4617 62.9164C66.2367 63.4647 65.1166 64.2371 64.1506 65.2031C63.1006 66.2531 62.277 67.4898 61.71 68.8314H64.5613C64.9416 68.1711 65.4107 67.5598 65.959 67.0114C66.8597 66.1107 67.933 65.4271 69.1043 64.9954L67.4617 62.9141V62.9164Z"
              fill="url(#paint4_linear_192_738)"/>
        <path fill-rule="evenodd" clip-rule="evenodd"
              d="M59.5166 52.8506C55.4169 55.4173 52.1385 59.1716 50.1505 63.6306C50.6778 64.4357 51.3055 65.166 52.0172 65.8123C53.7555 61.2343 56.9826 57.3866 61.1079 54.8689L59.5166 52.8529V52.8506Z"
              fill="url(#paint5_linear_192_738)"/>
    </g>
    <defs>
        <linearGradient id="paint0_linear_192_738" x1="32.706" y1="90.2393" x2="96.1189" y2="90.2393"
                        gradientUnits="userSpaceOnUse">
            <stop stop-color="#4DEF97"/>
            <stop offset="1" stop-color="#698FFF"/>
        </linearGradient>
        <linearGradient id="paint1_linear_192_738" x1="33.8719" y1="57.148" x2="97.2731" y2="57.148"
                        gradientUnits="userSpaceOnUse">
            <stop stop-color="#4DEF97"/>
            <stop offset="1" stop-color="#698FFF"/>
        </linearGradient>
        <linearGradient id="paint2_linear_192_738" x1="49.6484" y1="80.703" x2="49.6484" y2="92.8133"
                        gradientUnits="userSpaceOnUse">
            <stop stop-color="#184A4B"/>
            <stop offset="1" stop-color="#184A4B" stop-opacity="0"/>
        </linearGradient>
        <linearGradient id="paint3_linear_192_738" x1="62.0004" y1="82.9576" x2="62.0004" y2="93.607"
                        gradientUnits="userSpaceOnUse">
            <stop stop-color="#184A4B"/>
            <stop offset="1" stop-color="#184A4B" stop-opacity="0"/>
        </linearGradient>
        <linearGradient id="paint4_linear_192_738" x1="62.4227" y1="70.4058" x2="66.0847" y2="65.8446"
                        gradientUnits="userSpaceOnUse">
            <stop stop-color="#184A4B"/>
            <stop offset="1" stop-color="#184A4B" stop-opacity="0"/>
        </linearGradient>
        <linearGradient id="paint5_linear_192_738" x1="51.1405" y1="65.2799" x2="59.2239" y2="54.443"
                        gradientUnits="userSpaceOnUse">
            <stop stop-color="#184A4B"/>
            <stop offset="1" stop-color="#184A4B" stop-opacity="0"/>
        </linearGradient>
    </defs>
</svg>
