<svg width="130" height="130" viewBox="0 0 130 130" fill="none" xmlns="http://www.w3.org/2000/svg">
    <rect width="130" height="130" fill="#84BC2D"/>
    <path d="M54.4208 83.739L48.3179 92.9925H54.4208V83.739ZM43.2635 93.2382L54.3939 77.4336H59.4482V92.9652H62.4862V97.4418H59.4482V101.973H54.4208V97.4418H43.2635V93.2382Z"
          fill="white"/>
    <path d="M66.1158 86.1409C66.1158 86.1409 66.0889 85.595 66.0889 84.9945C66.1427 80.5725 69.3151 76.751 74.9609 76.751C80.3916 76.751 83.7254 80.4087 83.7254 84.6942C83.7254 87.8879 82.0047 90.481 78.9936 92.3372L74.3157 95.2306C73.3747 95.8311 72.595 96.5135 72.2186 97.4689H83.8598V102H65.9007C65.9276 97.6599 67.2718 94.1387 71.6272 91.4637L75.633 89.0343C77.7032 87.7787 78.5097 86.4958 78.5097 84.7761C78.5097 82.9745 77.273 81.3913 74.8265 81.3913C72.2455 81.3913 70.9819 83.1656 70.9819 85.4858C70.9819 85.9498 71.0088 86.1409 71.0088 86.1409H66.1158Z"
          fill="white"/>
    <path d="M88 65.3686L82.7843 61.3015C84.6394 58.0259 85.7148 54.259 85.7148 50.1919C85.7148 37.9359 75.9287 28 63.8574 28C51.7861 28 42 37.9359 42 50.1919C42 62.4479 51.7861 72.3838 63.8574 72.3838C69.3957 72.3838 74.4231 70.3093 78.2677 66.8699L83.5909 71.019L88 65.3686ZM63.8574 63.8946C56.4103 63.8946 50.3881 57.7803 50.3881 50.2192C50.3881 42.6581 56.4103 36.5437 63.8574 36.5437C71.3045 36.5437 77.3267 42.6581 77.3267 50.2192C77.3267 52.321 76.8697 54.2863 76.0362 56.0606L70.3635 51.6386L65.9544 57.2889L71.412 61.5472C69.2612 63.0212 66.6534 63.8946 63.8574 63.8946Z"
          fill="white"/>
</svg>
