<svg width="28" height="29" viewBox="0 0 28 29" fill="none" xmlns="http://www.w3.org/2000/svg">
    <path d="M27.8896 1.36943C27.8207 1.20382 27.7242 1.05202 27.5864 0.914013C27.4485 0.776009 27.2969 0.679406 27.1315 0.610404C26.9661 0.541402 26.8006 0.5138 26.6077 0.5H18.3368C17.5787 0.5 16.9583 1.12102 16.9583 1.88004C16.9583 2.63907 17.5787 3.26008 18.3368 3.26008H23.2855L13.2365 13.3206C12.6989 13.8588 12.6989 14.7282 13.2365 15.2665C13.5122 15.5425 13.8568 15.6667 14.2152 15.6667C14.5736 15.6667 14.9182 15.5287 15.1939 15.2665L25.243 5.20594V10.1603C25.243 10.9193 25.8633 11.5403 26.6214 11.5403C27.3796 11.5403 27.9999 10.9193 27.9999 10.1603V1.88004C27.9999 1.68684 27.9586 1.52123 27.8896 1.35563V1.36943Z"
          fill="black"/>
    <path d="M26.6 14.5C25.83 14.5 25.2 15.13 25.2 15.9V24.3C25.2 25.07 24.57 25.7 23.8 25.7H4.2C3.43 25.7 2.8 25.07 2.8 24.3V4.7C2.8 3.93 3.43 3.3 4.2 3.3H12.6C13.37 3.3 14 2.67 14 1.9C14 1.13 13.37 0.5 12.6 0.5H4.2C1.89 0.5 0 2.39 0 4.7V24.3C0 26.61 1.89 28.5 4.2 28.5H23.8C26.11 28.5 28 26.61 28 24.3V15.9C28 15.13 27.37 14.5 26.6 14.5Z"
          fill="black"/>
</svg>
