<svg width="20" height="20" viewBox="0 0 20 20" fill="none" xmlns="http://www.w3.org/2000/svg">
    <path d="M10 0.246704C7.62548 0.246803 5.32846 1.09182 3.51996 2.63055C1.71147 4.16929 0.509501 6.30133 0.129133 8.64519C-0.251235 10.989 0.214817 13.3918 1.4439 15.4235C2.67298 17.4551 4.58489 18.9832 6.83752 19.7342C7.33752 19.8217 7.52502 19.5217 7.52502 19.2592C7.52502 19.0217 7.51251 18.2342 7.51251 17.3967C5 17.8592 4.35 16.7842 4.15 16.2217C3.92808 15.6747 3.57628 15.1899 3.125 14.8092C2.775 14.6217 2.275 14.1592 3.11249 14.1467C3.43228 14.1814 3.73899 14.2927 4.00663 14.4711C4.27427 14.6495 4.49496 14.8899 4.65 15.1717C4.78677 15.4174 4.97068 15.6337 5.19119 15.8082C5.4117 15.9827 5.66447 16.112 5.93503 16.1886C6.20559 16.2652 6.48861 16.2877 6.76788 16.2548C7.04715 16.2219 7.31717 16.1342 7.56248 15.9967C7.60577 15.4883 7.83234 15.013 8.2 14.6592C5.975 14.4092 3.65 13.5467 3.65 9.72173C3.63595 8.72788 4.00269 7.76631 4.675 7.03423C4.36928 6.17045 4.40505 5.22252 4.775 4.38423C4.775 4.38423 5.61247 4.12172 7.525 5.40923C9.16129 4.95921 10.8887 4.95921 12.525 5.40923C14.4375 4.10923 15.275 4.38423 15.275 4.38423C15.645 5.22251 15.6808 6.17046 15.375 7.03423C16.0493 7.76506 16.4164 8.72747 16.4 9.72173C16.4 13.5592 14.0625 14.4092 11.8375 14.6592C12.0761 14.9011 12.26 15.1915 12.3764 15.5107C12.4929 15.83 12.5393 16.1705 12.5125 16.5092C12.5125 17.8468 12.5 18.9217 12.5 19.2592C12.5 19.5217 12.6875 19.8342 13.1875 19.7342C15.4362 18.9771 17.3426 17.4455 18.5664 15.4128C19.7903 13.38 20.2519 10.9785 19.8689 8.63694C19.4859 6.29535 18.2832 4.16608 16.4755 2.62922C14.6678 1.09235 12.3727 0.247939 10 0.246704Z"
          fill="black"/>
</svg>
