<svg width="28" height="33" viewBox="0 0 28 33" fill="none" xmlns="http://www.w3.org/2000/svg">
    <path d="M5.38056 0.999497L26.1638 13.5688C28.368 14.9012 28.368 18.0988 26.1638 19.4312L5.38056 32.0005C3.09758 33.3809 0.182617 31.7367 0.182617 29.0701V3.92987C0.182617 1.26325 3.09758 -0.380913 5.38056 0.999497Z"
          fill="#499ED7"/>
    <path d="M5.38048 31.9992L26.1637 19.43C28.3679 18.0975 28.3679 14.9 26.1637 13.5675L21.9557 11.0225L21.7502 11.0156L3.96753 32.4497C4.46632 32.4073 4.94921 32.2534 5.38048 31.9992Z"
          fill="#F04C4D"/>
    <path d="M0.182617 24.3941V29.068C0.182617 31.7363 3.09758 33.3787 5.38056 31.9983L26.1638 19.4291C27.474 18.6378 27.9861 17.1889 27.7377 15.8633L0.182617 24.3941Z"
          fill="#2B8EC6"/>
    <path d="M2.0289 0.905273C1.47144 1.18923 1.00371 1.62231 0.677754 2.15629C0.351798 2.69028 0.180402 3.30424 0.182639 3.92985V8.32455L2.0289 0.905273Z"
          fill="#499ED7"/>
    <path d="M26.1637 13.5683L5.38049 0.999019C4.94809 0.744329 4.4641 0.589825 3.96411 0.546875L21.7485 22.1008L26.1654 19.4308C28.3679 18.0966 28.3679 14.9007 26.1637 13.5683Z"
          fill="#92CA62"/>
    <path d="M14.2692 20.0339L3.96753 32.4507C4.44536 32.401 4.92491 32.2743 5.38048 32.0003L26.1637 19.431C27.4739 18.6398 27.986 17.1908 27.7376 15.8652L14.2692 20.0339Z"
          fill="#E13340"/>
    <path d="M26.1639 13.5685L21.9559 11.0235L21.7503 11.0166L17.1638 16.5451L21.7486 22.101L26.1656 19.4309C28.3681 18.0968 28.3681 14.9009 26.1639 13.5685Z"
          fill="#FCD770"/>
    <path d="M18.8679 18.6087L21.7486 22.0991L26.1656 19.4291C27.4758 18.6378 27.9879 17.1889 27.7395 15.8633L18.8679 18.6087Z"
          fill="#FFCC5C"/>
</svg>
