<svg width="24" height="24" viewBox="0 0 24 24" fill="none" xmlns="http://www.w3.org/2000/svg">
    <path fill-rule="evenodd" clip-rule="evenodd"
          d="M20.9239 0H3.0761C1.3859 0 0 1.38605 0 3.07605V20.9239C0 22.6139 1.3859 24 3.0761 24H20.9238C22.6143 24 24 22.6139 24 20.924V3.07605C24 1.38605 22.6143 0 20.9239 0ZM8.25 11.5906V19H5V9.65H8.25V11.5906ZM6.6185 8.2564C5.71435 8.2564 4.9807 7.5233 4.9807 6.6186C4.9807 5.71375 5.71435 4.98155 6.6185 4.98155C7.5239 4.98155 8.25685 5.7138 8.25685 6.6186C8.25685 7.5233 7.52395 8.2564 6.6185 8.2564ZM19 13.9V19H16.2V14.4584C16.2 13.3708 16.0823 11.9721 14.5918 11.9721C13.0787 11.9721 12.85 13.1561 12.85 14.38V19H10.15V9.65H12.75V10.9H12.7777C13.1655 10.2 14.1156 9.649 15.5303 9.649C17.9139 9.649 18.7239 10.7761 18.9455 12.5396C18.9981 12.9535 19.0184 13.4 19.0184 13.9H19Z"
          fill="#0B66C2"/>
</svg>
