<svg width="25" height="28" viewBox="0 0 25 28" fill="none" xmlns="http://www.w3.org/2000/svg">
    <path d="M16.3333 13.2632V4.42105L12.25 0L8.16667 4.42105V7.36842H0V28H24.5V13.2632H16.3333ZM5.44444 25.0526H2.72222V22.1053H5.44444V25.0526ZM5.44444 19.1579H2.72222V16.2105H5.44444V19.1579ZM5.44444 13.2632H2.72222V10.3158H5.44444V13.2632ZM13.6111 25.0526H10.8889V22.1053H13.6111V25.0526ZM13.6111 19.1579H10.8889V16.2105H13.6111V19.1579ZM13.6111 13.2632H10.8889V10.3158H13.6111V13.2632ZM13.6111 7.36842H10.8889V4.42105H13.6111V7.36842ZM21.7778 25.0526H19.0556V22.1053H21.7778V25.0526ZM21.7778 19.1579H19.0556V16.2105H21.7778V19.1579Z"
          fill="#E4E4E5"/>
</svg>
